<svg xmlns="http://www.w3.org/2000/svg" viewBox="0 0 348 82"><defs><style>.cls-1{fill:#5ec8ff;}</style></defs><title>logo</title><g id="I"><path class="cls-1" d="M54,0H10A10,10,0,0,0,0,10V54A10,10,0,0,0,10,64H54A10,10,0,0,0,64,54V10A10,10,0,0,0,54,0ZM37.1,20.62l-1.42.13a1.24,1.24,0,0,0-1.25,1.38V42l2.46,0.13v3.66H26.45V42.29l1.42-.13a1.71,1.71,0,0,0,.95-0.37,1.43,1.43,0,0,0,.3-1.06V20.92l-2.46-.13V17.13H37.1v3.49h0Z"/></g><g id="T"><path class="cls-1" d="M128,0H83A10,10,0,0,0,73,10V54A10,10,0,0,0,83,64h45a10,10,0,0,0,10-10V10A10,10,0,0,0,128,0ZM116.81,24.34l-4.4.3v-2a1.85,1.85,0,0,0-.21-1,1.26,1.26,0,0,0-1-.3h-2.93v20.6l3.4,0.13v3.66H99.49V42.18l2.28-.13A1.16,1.16,0,0,0,103,40.84V21.28H99.66q-1,0-1,1.34v2l-4.39-.3V17h22.54v7.33Z"/></g><g id="Talents"><g id="Rectangle_5" data-name="Rectangle 5"><polygon class="cls-1" points="298.7 58.19 298.7 82 322.52 58.19 298.7 58.19"/></g><path class="cls-1" d="M221.74,29.42a12.71,12.71,0,0,0-1.29,6.16q0,7,4.47,7A4.3,4.3,0,0,0,228,41.42a3.5,3.5,0,0,0,1.2-2.61V27.66a8,8,0,0,0-3.31-.56A4.4,4.4,0,0,0,221.74,29.42Z"/><path class="cls-1" d="M263.77,31.94a2.81,2.81,0,0,0,1.33-2.31A2.3,2.3,0,0,0,262.53,27a4.18,4.18,0,0,0-3.69,1.92,8.83,8.83,0,0,0-1.42,4.59,22.51,22.51,0,0,0,3.46-.32A7,7,0,0,0,263.77,31.94Z"/><path class="cls-1" d="M338,0H184a10,10,0,0,0-10,10V54a10,10,0,0,0,10,10H338a10,10,0,0,0,10-10V10A10,10,0,0,0,338,0ZM212.85,24.34l-4.38.3v-2a1.84,1.84,0,0,0-.21-1,1.25,1.25,0,0,0-1-.3h-2.92v20.6L207.7,42v3.66H195.59V42.18l2.27-.13a1.16,1.16,0,0,0,1.24-1.21V21.28h-3.35q-1,0-1,1.34v2l-4.38-.3V17h22.46v7.32h0Zm23.79,21.33h-6.83v-2.5l-0.13,0a6.78,6.78,0,0,1-5.88,3.1q-4.38,0-6.48-2.8a12.51,12.51,0,0,1-2.1-7.67q0-5.86,2.83-9.14t8.5-3.27a21.63,21.63,0,0,1,7.64,1.51v16a1.42,1.42,0,0,0,.24.95,1.23,1.23,0,0,0,.84.3l1.37,0.09v3.45Zm12.75,0H239.17V42.39l1.42-.13a1.24,1.24,0,0,0,1.24-1.38V19.64a1,1,0,0,0-1.07-1l-1.5-.09V14.94h7.69V42.09l2.45,0.13v3.45ZM267,45.41a12.43,12.43,0,0,1-4.66.82q-5.24,0-7.69-2.91t-2.45-8A13.12,13.12,0,0,1,255,26.79a9.49,9.49,0,0,1,7.81-3.45,7.74,7.74,0,0,1,5.11,1.57,5.43,5.43,0,0,1,1.89,4.42,6.68,6.68,0,0,1-.82,3.34,6.61,6.61,0,0,1-2,2.26,10.59,10.59,0,0,1-2.92,1.34,22.56,22.56,0,0,1-6.48.86A5.73,5.73,0,0,0,259,40.82a5.11,5.11,0,0,0,4,1.4,9.14,9.14,0,0,0,5.32-1.9l1.63,3.49A10.1,10.1,0,0,1,267,45.41Zm29,0.26H285.84V42.39l1.42-.13a1.69,1.69,0,0,0,.95-0.37,1.44,1.44,0,0,0,.3-1.06V32a6.66,6.66,0,0,0-.73-3.51A3,3,0,0,0,285,27.31a4.21,4.21,0,0,0-3.24,1.29,4.34,4.34,0,0,0-1.2,3.06V42.09L283,42.22v3.45H272.79V42.39l1.42-.13a1.69,1.69,0,0,0,.94-0.37,1.43,1.43,0,0,0,.3-1.06V28.91a1.1,1.1,0,0,0-1.07-1.34l-1.8-.13V24h7.26v2.8a7.83,7.83,0,0,1,3-2.52,8.77,8.77,0,0,1,4-.93,6.63,6.63,0,0,1,5,1.88q1.78,1.88,1.78,5.62V42.09l2.45,0.13v3.44h0Zm9.92,0.6a9.41,9.41,0,0,1-3.26-.5,5.92,5.92,0,0,1-2-1.1,3.84,3.84,0,0,1-1-1.77,9,9,0,0,1-.39-1.83q0-.67,0-2V27.61h-3l0.43-3.15a4.18,4.18,0,0,0,3-1.44,12.8,12.8,0,0,0,1.89-3.6h2.79V24h5.71l-0.43,3.62h-5.28V38.94a4,4,0,0,0,.69,2.65,2.74,2.74,0,0,0,2.13.75,5.47,5.47,0,0,0,2.9-.9l1.29,3.32A9.26,9.26,0,0,1,306,46.27Zm21.4-1.87a9.35,9.35,0,0,1-5.95,1.83q-5.24,0-7.9-1.34v-6l3.86-.3v2.07q0,1.9,3.61,1.9t3.61-2.63a2.07,2.07,0,0,0-.62-1.55,3.52,3.52,0,0,0-1.22-.82q-0.6-.21-1.44-0.43l-1.63-.43a15.8,15.8,0,0,1-1.72-.58,13.23,13.23,0,0,1-2-1.06q-2.19-1.42-2.19-4.76a6.1,6.1,0,0,1,2.36-5.15,9.49,9.49,0,0,1,5.95-1.81,16,16,0,0,1,7.11,1.72v5.17l-3.86.3V28.73a1.45,1.45,0,0,0-1-1.47,7.09,7.09,0,0,0-2.49-.39,3.78,3.78,0,0,0-2.34.67,2,2,0,0,0-.88,1.64,3,3,0,0,0,.32,1.51,2.65,2.65,0,0,0,1,.93,12.89,12.89,0,0,0,2.58,1q1.5,0.41,2.23.65a13.09,13.09,0,0,1,1.83.8,5.42,5.42,0,0,1,1.65,1.21,5.73,5.73,0,0,1,1.5,4.09A6.07,6.07,0,0,1,327.39,44.4Z"/></g><g id="Rectangle_6" data-name="Rectangle 6"><rect class="cls-1" x="147" y="29" width="18" height="5"/></g></svg>
